<svg width="120" height="25" viewBox="0 0 120 25" fill="none" xmlns="http://www.w3.org/2000/svg">
<g clip-path="url(#clip0_915_265)">
<path d="M13.3759 1.63846C11.3961 0.546154 9.06367 0 6.37845 0H1.72076V4.1144H2.72658V4.11571L6.48087 4.09604C8.21032 4.09604 9.70081 4.44879 10.9524 5.15423C12.2267 5.85967 13.2166 6.84956 13.9221 8.12385C14.6275 9.39819 14.9802 10.9229 14.9802 12.6978C14.9802 14.4501 14.6275 15.9747 13.9221 17.2718C13.2166 18.5461 12.2267 19.5474 10.9524 20.2755C9.70081 20.981 8.21032 21.3337 6.48087 21.3337L1.7207 21.3337V25.4298H6.37845C9.06367 25.4298 11.3961 24.895 13.3759 23.8255C15.3785 22.7332 16.9259 21.2313 18.0181 19.3198C19.1104 17.3855 19.6566 15.1782 19.6566 12.6978C19.6566 10.1947 19.1104 7.99874 18.0181 6.10994C16.9259 4.19846 15.3785 2.70802 13.3759 1.63846ZM26.4283 1.63846C28.4081 0.546154 30.7406 0 33.4258 0H38.0836V4.1144H37.0777V4.11571L33.3234 4.09604C31.5939 4.09604 30.1034 4.44879 28.8519 5.15423C27.5775 5.85967 26.5876 6.84956 25.8822 8.12385C25.1768 9.39819 24.8241 10.9229 24.8241 12.6978C24.8241 14.4501 25.1768 15.9747 25.8822 17.2718C26.5876 18.5461 27.5775 19.5474 28.8519 20.2755C30.1034 20.981 31.5939 21.3337 33.3234 21.3337L38.0836 21.3337V25.4298H33.4258C30.7406 25.4298 28.4081 24.895 26.4283 23.8255C24.4258 22.7332 22.8785 21.2313 21.7861 19.3198C20.6938 17.3855 20.1477 15.1782 20.1477 12.6978C20.1477 10.1947 20.6938 7.99874 21.7861 6.10994C22.8785 4.19846 24.4258 2.70802 26.4283 1.63846Z" fill="#2448BF"/>
<path d="M0 12.7036H40" stroke="#2448BF" stroke-width="2.54544"/>
</g>
<defs>
<clipPath id="clip0_915_265">
<rect width="120" height="25" fill="white"/>
</clipPath>
</defs>
</svg>
